<svg t="1701155628802" class="icon" viewBox="0 0 1024 1024" version="1.1" xmlns="http://www.w3.org/2000/svg" p-id="6380" width="200" height="200"><path d="M42.656 346.08h938.656v331.84H42.656z" fill="#F0F0F0" p-id="6381"></path><path d="M409.28 596.352l30.784-179.936h49.824l-30.784 179.936z m227.2-175.264a130.592 130.592 0 0 0-44.64-7.552c-49.248 0-83.936 24.416-84.224 59.36-0.288 25.856 24.736 40.288 43.648 48.896 19.424 8.8 25.92 14.432 25.856 22.304-0.128 12.064-15.52 17.6-29.856 17.6-19.936-0.032-30.528-2.752-46.912-9.472l-6.4-2.88-7.008 40.32c11.648 4.992 33.184 9.344 55.52 9.6 52.384-0.032 86.4-24.16 86.784-61.504 0.192-20.48-13.12-36.032-41.856-48.864-17.408-8.32-28.064-13.888-27.968-22.304 0-7.488 9.056-15.488 28.544-15.488 16.32-0.256 28.096 3.264 37.312 6.912l4.48 2.048 6.72-38.976z m84.992-4.672c-11.936 0-20.576 3.616-25.824 15.36l-73.856 164.576h52.8l10.24-27.584h63.04l5.856 27.584h46.88l-41.024-179.904h-38.112z m-22.656 116.352c4.128-10.336 19.84-50.272 19.84-50.272-0.288 0.48 4.096-10.4 6.624-17.152l3.36 15.488 11.52 51.968h-41.344zM318.4 539.744l-4.384-24.64c-9.088-28.768-37.312-59.84-68.96-75.456l44.032 156.704h52.8l79.104-179.936h-52.736L318.4 539.744z" fill="#293688" p-id="6382"></path><path d="M190.88 416.416v2.912c62.528 14.912 105.92 52.544 123.136 95.776l-18.08-83.328c-3.008-11.36-12.16-14.944-22.976-15.36h-82.08z" fill="#F7981D" p-id="6383"></path><path d="M85.344 213.344h853.312c23.584 0 42.688 19.104 42.688 42.656v90.08H42.656V256c0-23.552 19.104-42.656 42.688-42.656z" fill="#293688" p-id="6384"></path><path d="M42.656 677.92h938.688V768c0 23.552-19.104 42.656-42.688 42.656H85.344A42.656 42.656 0 0 1 42.656 768v-90.08z" fill="#F7981D" p-id="6385"></path></svg>